<svg width="91" height="97" viewBox="0 0 91 97" fill="none" xmlns="http://www.w3.org/2000/svg">
<g filter="url(#filter0_d_1_78)">
<path d="M25.6883 30.1758L19.2492 26.7551C16.1469 25.1071 14.2078 21.8811 14.2078 18.3683V18.3683C14.2078 14.6609 16.3653 11.2924 19.7329 9.74191L20.9393 9.18646C23.9584 7.79648 27.4294 7.7719 30.4678 9.119L32.0549 9.82267C35.4327 11.3202 37.6104 14.6679 37.6104 18.3627V18.3627C37.6104 21.8701 35.6457 25.082 32.5232 26.6794L25.6883 30.1758ZM25.6883 30.1758L22.6331 31.8638C18.8766 33.9392 15.8624 37.1366 14.012 41.009V41.009C12.6875 43.781 12 46.8143 12 49.8865V79C12 80.1046 12.8954 81 14 81H41.5844M25.6883 30.1758L29.9487 32.4175C33.2356 34.147 36.0255 36.6885 38.0531 39.8003V39.8003C40.3576 43.3369 41.5844 47.4671 41.5844 51.6882V81M25.6883 30.1758L22.7698 34.3584C22.3043 35.0254 22.2892 35.9079 22.7315 36.5904L25.6883 41.1538M25.6883 30.1758L29.0061 34.2431C29.5894 34.9581 29.6078 35.9794 29.0506 36.7149L25.6883 41.1538M41.5844 81L51.8436 50.7703C52.3359 49.3196 52.1351 47.7231 51.2987 46.4396V46.4396V46.4396C50.1362 44.0311 49.5325 41.3886 49.5325 38.7143V38.7143M41.5844 81H78.0905C78.9872 81 79.5859 80.0757 79.2194 79.2574L66.2471 50.2997C65.7369 49.1608 65.8403 47.8407 66.5216 46.7951V46.7951C66.6755 46.5589 66.8017 46.3057 66.8977 46.0406L67.2794 44.9861C67.8077 43.5266 68.0779 41.9864 68.0779 40.4343V38.7143M25.6883 41.1538L22.2286 49.4518C22.0794 49.8095 22.0374 50.2029 22.1077 50.5841L25.2348 67.5409C25.3339 68.0784 26.1001 68.0899 26.2153 67.5556L29.8542 50.6761C29.9487 50.2381 29.8933 49.7811 29.697 49.3783L25.6883 41.1538ZM49.5325 38.7143L51.2469 36.5615C53.3216 33.9564 55.8901 31.7864 58.8052 30.1758V30.1758M49.5325 38.7143L45.2761 36.4747C44.2399 35.9295 43.8916 34.6147 44.5219 33.628L49.5325 25.7846M49.5325 38.7143L52.2421 38.5064C53.9145 38.378 55.5786 38.843 56.9423 39.8196L58.463 40.9088C58.6855 41.0682 58.9524 41.1538 59.2261 41.1538V41.1538C59.5252 41.1538 59.8153 41.0515 60.0483 40.8638L61.3427 39.8209C62.5482 38.8496 64.0815 38.3797 65.6242 38.5089L68.0779 38.7143M58.8052 30.1758V30.1758C61.7202 31.7864 64.2888 33.9564 66.3635 36.5615L68.0779 38.7143M58.8052 30.1758L49.5325 25.7846M58.8052 30.1758L68.0779 25.7846M68.0779 38.7143L72.7356 36.141C73.7825 35.5626 74.0911 34.2008 73.3958 33.2277L68.0779 25.7846M49.5325 25.7846V25.7846C48.4036 24.6932 47.7662 23.1903 47.7662 21.6201V19.2392C47.7662 14.9899 50.2052 11.1179 54.0378 9.28273V9.28273C57.0522 7.83938 60.5582 7.83938 63.5726 9.28273V9.28273C67.4051 11.1179 69.8442 14.9899 69.8442 19.2392V21.6201C69.8442 23.1903 69.2067 24.6932 68.0779 25.7846V25.7846" stroke="#F02ED1" stroke-width="3"/>
</g>
<defs>
<filter id="filter0_d_1_78" x="0.5" y="0.626038" width="90.3306" height="95.874" filterUnits="userSpaceOnUse" color-interpolation-filters="sRGB">
<feFlood flood-opacity="0" result="BackgroundImageFix"/>
<feColorMatrix in="SourceAlpha" type="matrix" values="0 0 0 0 0 0 0 0 0 0 0 0 0 0 0 0 0 0 127 0" result="hardAlpha"/>
<feOffset dy="4"/>
<feGaussianBlur stdDeviation="5"/>
<feColorMatrix type="matrix" values="0 0 0 0 0.941667 0 0 0 0 0.180486 0 0 0 0 0.819878 0 0 0 1 0"/>
<feBlend mode="normal" in2="BackgroundImageFix" result="effect1_dropShadow_1_78"/>
<feBlend mode="normal" in="SourceGraphic" in2="effect1_dropShadow_1_78" result="shape"/>
</filter>
</defs>
</svg>
