<svg width="96" height="101" viewBox="0 0 96 101" fill="none" xmlns="http://www.w3.org/2000/svg">
<g filter="url(#filter0_d_1_84)">
<path d="M49.6577 21.8239L49.3353 21.6637C48.4942 21.2456 47.5058 21.2456 46.6647 21.6637L46.3423 21.8239C45.52 22.2327 45 23.0718 45 23.9901C45 24.9002 45.5108 25.7333 46.3219 26.1461L46.6394 26.3076C47.4943 26.7427 48.5057 26.7427 49.3606 26.3076L49.6781 26.1461C50.4892 25.7333 51 24.9002 51 23.9901C51 23.0718 50.48 22.2327 49.6577 21.8239Z" stroke="#F02ED1" stroke-width="3"/>
<path d="M22.8165 37.4182L22.6512 37.0983C22.22 36.2639 21.4229 35.6796 20.4974 35.5195L20.1426 35.4581C19.2377 35.3016 18.3223 35.671 17.7793 36.4116C17.2413 37.1456 17.1607 38.1195 17.5709 38.9319L17.7314 39.2499C18.1637 40.1062 18.9794 40.7042 19.9261 40.8587L20.2777 40.9161C21.1759 41.0628 22.0804 40.6929 22.6185 39.9588C23.1614 39.2182 23.2381 38.234 22.8165 37.4182Z" stroke="#F02ED1" stroke-width="3"/>
<path d="M38.8165 45.4182L38.6512 45.0983C38.22 44.2639 37.4229 43.6796 36.4974 43.5195L36.1426 43.4581C35.2377 43.3016 34.3223 43.671 33.7793 44.4116C33.2413 45.1456 33.1607 46.1195 33.5709 46.9319L33.7314 47.2499C34.1637 48.1062 34.9794 48.7042 35.9261 48.8587L36.2777 48.9161C37.1759 49.0628 38.0804 48.6929 38.6185 47.9588C39.1614 47.2182 39.2381 46.234 38.8165 45.4182Z" stroke="#F02ED1" stroke-width="3"/>
<path d="M30.8165 52.4182L30.6512 52.0983C30.22 51.2639 29.4229 50.6796 28.4974 50.5195L28.1426 50.4581C27.2377 50.3016 26.3223 50.671 25.7793 51.4116C25.2413 52.1456 25.1607 53.1195 25.5709 53.9319L25.7314 54.2499C26.1637 55.1062 26.9794 55.7042 27.9261 55.8587L28.2777 55.9161C29.1759 56.0628 30.0804 55.6929 30.6185 54.9588C31.1614 54.2182 31.2381 53.234 30.8165 52.4182Z" stroke="#F02ED1" stroke-width="3"/>
<path d="M22.8165 59.4182L22.6512 59.0983C22.22 58.2639 21.4229 57.6796 20.4974 57.5195L20.1426 57.4581C19.2377 57.3016 18.3223 57.671 17.7793 58.4116C17.2413 59.1456 17.1607 60.1195 17.5709 60.9319L17.7314 61.2499C18.1637 62.1062 18.9794 62.7042 19.9261 62.8587L20.2777 62.9161C21.1759 63.0628 22.0804 62.6929 22.6185 61.9588C23.1614 61.2182 23.2381 60.234 22.8165 59.4182Z" stroke="#F02ED1" stroke-width="3"/>
<path d="M38.8165 67.4182L38.6512 67.0983C38.22 66.2639 37.4229 65.6796 36.4974 65.5195L36.1426 65.4581C35.2377 65.3016 34.3223 65.671 33.7793 66.4116C33.2413 67.1456 33.1607 68.1195 33.5709 68.9319L33.7314 69.2499C34.1637 70.1062 34.9794 70.7042 35.9261 70.8587L36.2777 70.9161C37.1759 71.0628 38.0804 70.6929 38.6185 69.9588C39.1614 69.2182 39.2381 68.234 38.8165 67.4182Z" stroke="#F02ED1" stroke-width="3"/>
<path d="M49.6577 29.8239L49.3353 29.6637C48.4942 29.2456 47.5058 29.2456 46.6647 29.6637L46.3423 29.8239C45.52 30.2327 45 31.0718 45 31.9901C45 32.9002 45.5108 33.7333 46.3219 34.1461L46.6394 34.3076C47.4943 34.7427 48.5057 34.7427 49.3606 34.3076L49.6781 34.1461C50.4892 33.7333 51 32.9002 51 31.9901C51 31.0718 50.48 30.2327 49.6577 29.8239Z" stroke="#F02ED1" stroke-width="3"/>
<path d="M60.3326 48.0767L60.5882 47.8231C61.2549 47.1615 61.5732 46.2258 61.4483 45.2949L61.4005 44.938C61.2784 44.0279 60.6514 43.2653 59.782 42.9695C58.9204 42.6764 57.9672 42.8917 57.3152 43.5266L57.06 43.7752C56.3728 44.4444 56.047 45.4019 56.1836 46.3513L56.2342 46.7039C56.3638 47.6048 56.9879 48.3567 57.8495 48.6498C58.7189 48.9456 59.6808 48.7236 60.3326 48.0767Z" stroke="#F02ED1" stroke-width="3"/>
<path d="M76.3326 41.0767L76.5882 40.8231C77.2549 40.1615 77.5732 39.2258 77.4483 38.2949L77.4005 37.938C77.2784 37.0279 76.6514 36.2653 75.782 35.9695C74.9204 35.6764 73.9672 35.8917 73.3152 36.5266L73.06 36.7752C72.3728 37.4444 72.047 38.4019 72.1836 39.3513L72.2342 39.7039C72.3638 40.6048 72.9879 41.3567 73.8495 41.6498C74.7189 41.9456 75.6808 41.7236 76.3326 41.0767Z" stroke="#F02ED1" stroke-width="3"/>
<path d="M76.3326 52.0767L76.5882 51.8231C77.2549 51.1615 77.5732 50.2258 77.4483 49.2949L77.4005 48.938C77.2784 48.0279 76.6514 47.2653 75.782 46.9695C74.9204 46.6764 73.9672 46.8917 73.3152 47.5266L73.06 47.7752C72.3728 48.4444 72.047 49.4019 72.1836 50.3513L72.2342 50.7039C72.3638 51.6048 72.9879 52.3567 73.8495 52.6498C74.7189 52.9456 75.6808 52.7236 76.3326 52.0767Z" stroke="#F02ED1" stroke-width="3"/>
<path d="M76.3326 63.0767L76.5882 62.8231C77.2549 62.1615 77.5732 61.2258 77.4483 60.2949L77.4005 59.938C77.2784 59.0279 76.6514 58.2653 75.782 57.9695C74.9204 57.6764 73.9672 57.8917 73.3152 58.5266L73.06 58.7752C72.3728 59.4444 72.047 60.4019 72.1836 61.3513L72.2342 61.7039C72.3638 62.6048 72.9879 63.3567 73.8495 63.6498C74.7189 63.9456 75.6808 63.7236 76.3326 63.0767Z" stroke="#F02ED1" stroke-width="3"/>
<path d="M60.3326 71.0767L60.5882 70.8231C61.2549 70.1615 61.5732 69.2258 61.4483 68.2949L61.4005 67.938C61.2784 67.0279 60.6514 66.2653 59.782 65.9695C58.9204 65.6764 57.9672 65.8917 57.3152 66.5266L57.06 66.7752C56.3728 67.4444 56.047 68.4019 56.1836 69.3513L56.2342 69.7039C56.3638 70.6048 56.9879 71.3567 57.8495 71.6498C58.7189 71.9456 59.6808 71.7236 60.3326 71.0767Z" stroke="#F02ED1" stroke-width="3"/>
<path d="M60.3326 59.0767L60.5882 58.8231C61.2549 58.1615 61.5732 57.2258 61.4483 56.2949L61.4005 55.938C61.2784 55.0279 60.6514 54.2653 59.782 53.9695C58.9204 53.6764 57.9672 53.8917 57.3152 54.5266L57.06 54.7752C56.3728 55.4444 56.047 56.4019 56.1836 57.3513L56.2342 57.7039C56.3638 58.6048 56.9879 59.3567 57.8495 59.6498C58.7189 59.9456 59.6808 59.7236 60.3326 59.0767Z" stroke="#F02ED1" stroke-width="3"/>
<path d="M48 40.303V85M48 40.303L84 23.4061M48 40.303L30 31.8545L12 23.4061M48 85L84 67.5V23.4061M48 85L12 67.5V23.4061M84 23.4061L48 8L12 23.4061M51 16V16C51 16.9193 50.4806 17.7597 49.6584 18.1708L49.3416 18.3292C48.4971 18.7515 47.5029 18.7515 46.6584 18.3292L46.3416 18.1708C45.5194 17.7597 45 16.9193 45 16V16C45 15.0807 45.5194 14.2403 46.3416 13.8292L46.6584 13.6708C47.5029 13.2485 48.4971 13.2485 49.3416 13.6708L49.6584 13.8292C50.4806 14.2403 51 15.0807 51 16Z" stroke="#F02ED1" stroke-width="3"/>
</g>
<defs>
<filter id="filter0_d_1_84" x="0.5" y="0.368408" width="95" height="100.299" filterUnits="userSpaceOnUse" color-interpolation-filters="sRGB">
<feFlood flood-opacity="0" result="BackgroundImageFix"/>
<feColorMatrix in="SourceAlpha" type="matrix" values="0 0 0 0 0 0 0 0 0 0 0 0 0 0 0 0 0 0 127 0" result="hardAlpha"/>
<feOffset dy="4"/>
<feGaussianBlur stdDeviation="5"/>
<feColorMatrix type="matrix" values="0 0 0 0 0.941667 0 0 0 0 0.180486 0 0 0 0 0.819878 0 0 0 1 0"/>
<feBlend mode="normal" in2="BackgroundImageFix" result="effect1_dropShadow_1_84"/>
<feBlend mode="normal" in="SourceGraphic" in2="effect1_dropShadow_1_84" result="shape"/>
</filter>
</defs>
</svg>
