<svg width="86" height="110" viewBox="0 0 86 110" fill="none" xmlns="http://www.w3.org/2000/svg">
<g filter="url(#filter0_d_1_73)">
<path d="M14.8763 81.3356V93C14.8763 95.7614 17.1149 98 19.8763 98H66.1237C68.8851 98 71.1237 95.7614 71.1237 93V81.3356M14.8763 81.3356L13.7054 82.7893C13.3217 83.2657 12.5959 83.2657 12.2121 82.7893V82.7893C12.0748 82.6189 12 82.4066 12 82.1878V72.9446C12 70.1832 14.2386 67.9446 17 67.9446H20.9485M14.8763 81.3356V81.3356C15.8872 80.7709 17.0988 80.6922 18.1743 81.1213L18.7113 81.3356L20.589 82.3347C20.8282 82.462 21.0774 82.5696 21.3341 82.6565L22.6844 83.1137C23.8316 83.5022 25.0808 83.461 26.1999 82.9979L26.8753 82.7183C27.1836 82.5908 27.4716 82.4189 27.7303 82.2081V82.2081C28.9918 81.1803 30.802 81.1803 32.0635 82.2081L32.1144 82.2496C32.3397 82.4331 32.5868 82.588 32.8502 82.7106L33.1024 82.828C34.312 83.3912 35.7086 83.3912 36.9182 82.828L37.083 82.7513C37.4037 82.602 37.6989 82.4032 37.9577 82.1622V82.1622C39.0524 81.1428 40.6878 80.9665 41.9746 81.729L42.8424 82.2432C43.1594 82.431 43.4974 82.5811 43.8494 82.6904L45.6054 83.2354C46.6124 83.548 47.6924 83.5342 48.6911 83.196L50.264 82.6635C50.5342 82.572 50.7962 82.4575 51.0469 82.3213L52.2332 81.677C53.5904 80.9397 55.267 81.1523 56.3974 82.2048V82.2048C56.6263 82.418 56.8821 82.6004 57.1583 82.7473L57.2776 82.8108C58.3667 83.3903 59.6422 83.5105 60.8204 83.1448L62.0295 82.7696C62.5493 82.6082 63.0393 82.3631 63.4801 82.0439L65.2277 80.7782C65.5352 80.5555 65.8691 80.3717 66.2217 80.231L66.405 80.1579C67.3827 79.7677 68.4729 79.7677 69.4507 80.1579V80.1579C69.9228 80.3463 70.3558 80.6206 70.7278 80.967L71.1237 81.3356M71.1237 81.3356L71.7053 82.4188C71.7436 82.4901 71.7884 82.5577 71.8392 82.6207L71.9419 82.7481C72.3632 83.2712 73.1399 83.3268 73.6314 82.8691V82.8691C73.8665 82.6503 74 82.3435 74 82.0223V75.0865V70.3086C74 69.7433 73.7975 69.1968 73.4291 68.768V68.768C72.98 68.2453 72.3252 67.9446 71.6361 67.9446H63.7732M20.9485 67.9446H39.8041H63.7732M20.9485 67.9446V49.4948M20.9485 49.4948L20.0207 50.2352C19.3392 50.7792 18.3313 50.5726 17.9188 49.8043V49.8043C17.8097 49.6011 17.7526 49.3741 17.7526 49.1435V43.1869C17.7526 40.4254 19.9912 38.1869 22.7526 38.1869H39.8041M20.9485 49.4948V49.4948C21.9172 48.9536 23.1158 49.0439 23.9925 49.7242L24.1399 49.8386C24.355 50.0054 24.5914 50.1427 24.8428 50.2468L25.4991 50.5184C26.6409 50.9909 27.9471 50.8282 28.9381 50.09V50.09L29.2244 49.8996C30.4062 49.1136 31.9443 49.1136 33.1262 49.8996V49.8996C33.3165 50.0262 33.5187 50.134 33.73 50.2214L34.8566 50.6876C35.729 51.0487 36.7319 50.8675 37.4229 50.2241V50.2241C37.5188 50.1348 37.6218 50.0535 37.7309 49.981L37.8616 49.894C39.0744 49.0874 40.6112 48.9437 41.9526 49.5114L43.3196 50.09L44.1105 50.4173C45.4196 50.959 46.9096 50.8372 48.1134 50.09V50.09L48.5902 49.8125C49.9046 49.0475 51.4958 48.9224 52.9136 49.4725L54.5052 50.09L54.9832 50.3443C56.0573 50.9158 57.3645 50.8167 58.3402 50.09V50.09L58.5236 49.9832C60.0017 49.1231 61.8169 49.078 63.3358 49.8637L63.7732 50.09M63.7732 50.09V50.09C64.7598 50.7024 66.06 50.2487 66.4514 49.1554L66.5316 48.9315C66.6096 48.7135 66.6495 48.4837 66.6495 48.2522V43.1869C66.6495 40.4254 64.4109 38.1869 61.6495 38.1869H44.2783M63.7732 50.09V67.9446M39.8041 38.1869V25.9031C39.8041 24.7985 40.6996 23.9031 41.8041 23.9031H42.0412M39.8041 38.1869H44.2783M44.2783 38.1869V25.9031C44.2783 24.7985 43.3829 23.9031 42.2783 23.9031H42.0412M42.0412 23.9031L41.074 22.1018C40.8675 21.7173 40.6115 21.3614 40.3126 21.0433L39.4457 20.1209C38.8548 19.492 38.5258 18.6614 38.5258 17.7985V17.7985C38.5258 16.7669 38.9953 15.7913 39.8016 15.1478L40.5488 14.5515C40.6904 14.4384 40.8114 14.3016 40.9062 14.1471L41.3547 13.4162C41.6925 12.8659 41.3918 12.1464 40.7629 12V12V12C42.2204 12.1696 43.3196 13.4042 43.3196 14.8715V14.9758V15.7608C43.3196 16.5776 43.7055 17.3463 44.3606 17.8343L44.4986 17.9371C44.773 18.1415 44.9886 18.4147 45.1237 18.7291V18.7291C45.3925 19.3547 45.3145 20.0753 44.9181 20.629L44.2783 21.5225L42.0412 23.9031Z" stroke="#F02ED1" stroke-width="3"/>
</g>
<defs>
<filter id="filter0_d_1_73" x="0.5" y="0.51001" width="85" height="108.99" filterUnits="userSpaceOnUse" color-interpolation-filters="sRGB">
<feFlood flood-opacity="0" result="BackgroundImageFix"/>
<feColorMatrix in="SourceAlpha" type="matrix" values="0 0 0 0 0 0 0 0 0 0 0 0 0 0 0 0 0 0 127 0" result="hardAlpha"/>
<feOffset/>
<feGaussianBlur stdDeviation="5"/>
<feColorMatrix type="matrix" values="0 0 0 0 0.941667 0 0 0 0 0.180486 0 0 0 0 0.819878 0 0 0 1 0"/>
<feBlend mode="normal" in2="BackgroundImageFix" result="effect1_dropShadow_1_73"/>
<feBlend mode="normal" in="SourceGraphic" in2="effect1_dropShadow_1_73" result="shape"/>
</filter>
</defs>
</svg>
