<svg width="269" height="258" viewBox="0 0 269 258" fill="none" xmlns="http://www.w3.org/2000/svg">
<g filter="url(#filter0_d_31_125)">
<g filter="url(#filter1_d_31_125)">
<path d="M131.703 106.044L136.285 111.14C136.662 111.56 137.323 111.552 137.691 111.123L142.438 105.579C144.134 103.599 146.272 102.047 148.679 101.047L149.848 100.562C153.173 99.1813 156.911 99.1813 160.235 100.562C163.344 101.853 165.861 104.255 167.295 107.3L167.859 108.497C168.925 110.759 169.477 113.229 169.477 115.729V118.521C169.477 121.737 168.95 124.932 167.917 127.979L167.363 129.612C165.844 134.092 163.541 138.266 160.561 141.939L159.693 143.008C157.932 145.179 155.983 147.19 153.869 149.018L151.309 151.233C147.129 154.849 142.539 157.962 137.633 160.508C137.233 160.715 136.759 160.72 136.356 160.521L136.199 160.443C131.129 157.937 126.313 154.948 121.818 151.517L120.397 150.432L119.402 149.673C116.44 147.413 113.757 144.808 111.41 141.915L110.804 141.169C108.232 137.998 106.151 134.458 104.632 130.667L103.526 127.908C102.327 124.916 101.711 121.722 101.711 118.498V116.456C101.711 113.489 102.468 110.572 103.911 107.98L104.302 107.277C105.998 104.231 108.691 101.862 111.929 100.569C115.418 99.1765 119.299 99.1283 122.821 100.434L124.193 100.942C127.072 102.01 129.649 103.761 131.703 106.044Z" stroke="#F02ED1" stroke-width="3" shape-rendering="crispEdges"/>
</g>
<g filter="url(#filter2_f_31_125)">
<path d="M130.974 107.94L135.194 112.25C135.549 112.613 136.136 112.606 136.482 112.235L140.883 107.514C142.63 105.641 144.783 104.192 147.176 103.279L148.361 102.828C151.448 101.651 154.86 101.651 157.947 102.828C161.052 104.012 163.608 106.302 165.124 109.259L165.366 109.73C166.44 111.824 167 114.144 167 116.498V118.711C167 121.548 166.497 124.362 165.514 127.023L164.933 128.599C163.503 132.472 161.367 136.046 158.634 139.14L157.542 140.376C155.902 142.233 154.101 143.942 152.162 145.482L149.706 147.433C145.608 150.69 141.153 153.47 136.428 155.723C136.059 155.899 135.631 155.903 135.259 155.734L135.111 155.666C130.227 153.449 125.559 150.784 121.167 147.705L119.923 146.833L118.78 146.032C116.064 144.128 113.583 141.911 111.388 139.425L110.557 138.486C108.2 135.817 106.275 132.797 104.851 129.533L103.724 126.952C102.587 124.345 102 121.532 102 118.689V117.195C102 114.396 102.782 111.626 104.232 109.233C106.012 106.297 108.756 104.023 111.98 102.841C115.228 101.65 118.787 101.608 122.062 102.723L123.433 103.19C126.284 104.161 128.867 105.788 130.974 107.94Z" stroke="#F02ED1" stroke-opacity="0.7" stroke-width="3"/>
</g>
<path d="M159.172 113.043L171.062 103.085C172.635 101.768 173.543 99.8218 173.543 97.7706C173.543 95.8522 174.338 94.0197 175.739 92.709L180.077 88.6497C180.341 88.4031 180.772 88.59 180.772 88.951V93.1493C180.772 94.0912 181.429 94.9054 182.349 95.1042L187.185 96.1484C187.52 96.2208 187.629 96.645 187.369 96.8691L183.199 100.471C181.646 101.812 179.62 102.473 177.575 102.305C175.571 102.14 173.582 102.771 172.04 104.063L160.057 114.099C159.769 114.34 159.341 114.306 159.094 114.023C158.842 113.732 158.877 113.29 159.172 113.043Z" stroke="#F02ED1" stroke-width="3"/>
<path d="M104.406 155.46L113.87 147.528C114.12 147.319 114.5 147.496 114.5 147.821C114.5 147.935 114.45 148.042 114.363 148.115L105.23 155.795C104.99 155.997 104.981 156.364 105.212 156.576L109.805 160.808C109.863 160.861 109.839 160.958 109.762 160.978L96.2056 164.447C96.1237 164.468 96.0543 164.384 96.0903 164.308L102.599 150.47C102.639 150.386 102.76 150.396 102.786 150.484L104.209 155.4C104.233 155.485 104.338 155.517 104.406 155.46Z" stroke="#F02ED1" stroke-width="3"/>
</g>
<defs>
<filter id="filter0_d_31_125" x="78.577" y="71.0347" width="126.438" height="110.918" filterUnits="userSpaceOnUse" color-interpolation-filters="sRGB">
<feFlood flood-opacity="0" result="BackgroundImageFix"/>
<feColorMatrix in="SourceAlpha" type="matrix" values="0 0 0 0 0 0 0 0 0 0 0 0 0 0 0 0 0 0 127 0" result="hardAlpha"/>
<feOffset/>
<feGaussianBlur stdDeviation="8"/>
<feColorMatrix type="matrix" values="0 0 0 0 0.941667 0 0 0 0 0.180486 0 0 0 0 0.819878 0 0 0 1 0"/>
<feBlend mode="normal" in2="BackgroundImageFix" result="effect1_dropShadow_31_125"/>
<feBlend mode="normal" in="SourceGraphic" in2="effect1_dropShadow_31_125" result="shape"/>
</filter>
<filter id="filter1_d_31_125" x="96.2107" y="97.9885" width="78.7665" height="72.1783" filterUnits="userSpaceOnUse" color-interpolation-filters="sRGB">
<feFlood flood-opacity="0" result="BackgroundImageFix"/>
<feColorMatrix in="SourceAlpha" type="matrix" values="0 0 0 0 0 0 0 0 0 0 0 0 0 0 0 0 0 0 127 0" result="hardAlpha"/>
<feOffset dy="4"/>
<feGaussianBlur stdDeviation="2"/>
<feComposite in2="hardAlpha" operator="out"/>
<feColorMatrix type="matrix" values="0 0 0 0 0 0 0 0 0 0 0 0 0 0 0 0 0 0 0.25 0"/>
<feBlend mode="normal" in2="BackgroundImageFix" result="effect1_dropShadow_31_125"/>
<feBlend mode="normal" in="SourceGraphic" in2="effect1_dropShadow_31_125" result="shape"/>
</filter>
<filter id="filter2_f_31_125" x="0.5" y="0.41626" width="268" height="256.941" filterUnits="userSpaceOnUse" color-interpolation-filters="sRGB">
<feFlood flood-opacity="0" result="BackgroundImageFix"/>
<feBlend mode="normal" in="SourceGraphic" in2="BackgroundImageFix" result="shape"/>
<feGaussianBlur stdDeviation="50" result="effect1_foregroundBlur_31_125"/>
</filter>
</defs>
</svg>
