<svg width="120" height="70" viewBox="0 0 120 70" fill="none" xmlns="http://www.w3.org/2000/svg">
<g filter="url(#filter0_d_1_80)">
<path d="M65.394 15.3816L62.8023 17.1544L60.8471 18.45C60.2519 18.8444 59.4916 18.8916 58.8522 18.5738L55.9962 17.1544L53.1401 15.2617C49.9299 13.1345 46.1641 12 42.3131 12C39.7914 12 37.2934 12.4866 34.956 13.4331L29.7443 15.5436L24.3262 18.1765C23.093 18.7758 21.7397 19.0872 20.3685 19.0872C18.7105 19.0872 17.0844 18.6321 15.6674 17.7713L12.7554 16.0025C12.4511 15.8176 12.0681 16.067 12.114 16.4201L12.2095 17.1544L12.2745 17.6537C12.8999 22.4612 14.0403 27.1876 15.676 31.7514L16.0111 32.6864C17.2235 36.0691 18.7523 39.33 20.5771 42.4256L22.3223 45.3861C23.3777 47.1765 24.6346 48.8402 26.0685 50.3446L26.5696 50.8704C28.6662 53.0702 31.1693 54.8427 33.9404 56.09C39.5117 58.5977 45.9073 58.8144 51.6531 56.7376C52.7562 56.3389 53.8406 55.8544 54.8727 55.2972L57.4588 53.9008C58.9659 53.0871 60.7881 53.117 62.2676 53.9798L64.3173 55.175C65.4118 55.8133 66.5598 56.3552 67.7481 56.7948C73.2885 58.8439 79.4223 58.5649 84.7538 56.0212L85.8957 55.4763C87.671 54.6293 89.3395 53.5747 90.8662 52.3345L91.8569 51.5298C94.6713 49.2437 97.1198 46.5409 99.1175 43.515L99.491 42.9493C101.756 39.5182 103.479 35.7583 104.598 31.8021L106.555 24.8859L108.252 16.7369C108.353 16.25 107.851 15.859 107.404 16.0763L103.537 17.9552C102.004 18.7002 100.322 19.0872 98.6178 19.0872C96.9619 19.0872 95.3263 18.7219 93.8278 18.0172L88.568 15.5436L83.9583 13.5671C81.5469 12.5331 78.9506 12 76.327 12C72.4252 12 68.6144 13.1787 65.394 15.3816Z" stroke="#F02ED1" stroke-width="3"/>
<path d="M50.7755 31.2653L53.7756 34.7716L54.3344 35.5829C54.9025 36.4077 54.773 37.5255 54.0313 38.1985L53.7756 38.4305L53.6283 38.5585C51.0087 40.8354 47.6547 42.0893 44.1839 42.0893C42.613 42.0893 41.0526 41.8322 39.5648 41.3282L39.3745 41.2637C36.6227 40.3316 34.1856 38.6502 32.3372 36.4088L31.3423 35.2025C30.6423 34.3536 30.0097 33.4514 29.4503 32.5039L27.2447 28.768C27.142 28.5942 27.3004 28.3829 27.496 28.4326C29.33 28.8985 31.2514 28.8985 33.0854 28.4326L33.614 28.2983L37.8058 27.202C39.9941 26.6296 42.295 26.6472 44.4743 27.2528C46.9269 27.9343 49.1206 29.3313 50.7755 31.2653Z" stroke="#F02ED1" stroke-width="3"/>
<path d="M68.5428 31.2653L65.5427 34.7716L64.9839 35.5829C64.4158 36.4077 64.5453 37.5255 65.287 38.1985L65.5427 38.4305L65.69 38.5585C68.3096 40.8354 71.6636 42.0893 75.1344 42.0893C76.7054 42.0893 78.2657 41.8322 79.7536 41.3282L79.9439 41.2637C82.6956 40.3316 85.1327 38.6502 86.9812 36.4088L87.976 35.2025C88.676 34.3536 89.3086 33.4514 89.868 32.5039L92.0737 28.768C92.1763 28.5942 92.018 28.3829 91.8223 28.4326C89.9883 28.8985 88.067 28.8985 86.233 28.4326L85.7043 28.2983L81.5125 27.202C79.3242 26.6296 77.0233 26.6472 74.844 27.2528C72.3915 27.9343 70.1977 29.3313 68.5428 31.2653Z" stroke="#F02ED1" stroke-width="3"/>
</g>
<defs>
<filter id="filter0_d_1_80" x="0.609467" y="0.5" width="119.157" height="69.1529" filterUnits="userSpaceOnUse" color-interpolation-filters="sRGB">
<feFlood flood-opacity="0" result="BackgroundImageFix"/>
<feColorMatrix in="SourceAlpha" type="matrix" values="0 0 0 0 0 0 0 0 0 0 0 0 0 0 0 0 0 0 127 0" result="hardAlpha"/>
<feOffset/>
<feGaussianBlur stdDeviation="5"/>
<feColorMatrix type="matrix" values="0 0 0 0 0.941667 0 0 0 0 0.180486 0 0 0 0 0.819878 0 0 0 1 0"/>
<feBlend mode="normal" in2="BackgroundImageFix" result="effect1_dropShadow_1_80"/>
<feBlend mode="normal" in="SourceGraphic" in2="effect1_dropShadow_1_80" result="shape"/>
</filter>
</defs>
</svg>
